<mxfile host="app.diagrams.net" agent="Mozilla/5.0 (Macintosh; Intel Mac OS X 10_15_7) AppleWebKit/537.36 (KHTML, like Gecko) Chrome/127.0.0.0 Safari/537.36" version="24.7.6">
  <diagram id="wdwmOl_E9nb69aCgz7s6" name="Page-1">
    <mxGraphModel dx="1493" dy="988" grid="1" gridSize="10" guides="1" tooltips="1" connect="1" arrows="1" fold="1" page="1" pageScale="1" pageWidth="850" pageHeight="1100" math="0" shadow="0">
      <root>
        <mxCell id="0" />
        <mxCell id="1" parent="0" />
        <mxCell id="H54z4bkEIOrfgDnY-Pka-28" value="" style="edgeStyle=orthogonalEdgeStyle;rounded=0;orthogonalLoop=1;jettySize=auto;html=1;fontSize=16;" edge="1" parent="1" source="H54z4bkEIOrfgDnY-Pka-6" target="H54z4bkEIOrfgDnY-Pka-27">
          <mxGeometry relative="1" as="geometry" />
        </mxCell>
        <mxCell id="H54z4bkEIOrfgDnY-Pka-6" value="user" style="rounded=1;whiteSpace=wrap;html=1;fontFamily=Times New Roman;fontSize=16;" vertex="1" parent="1">
          <mxGeometry x="270" y="200" width="120" height="60" as="geometry" />
        </mxCell>
        <mxCell id="H54z4bkEIOrfgDnY-Pka-11" style="edgeStyle=orthogonalEdgeStyle;rounded=0;orthogonalLoop=1;jettySize=auto;html=1;entryX=0;entryY=0.5;entryDx=0;entryDy=0;curved=1;fontSize=16;" edge="1" parent="1" source="H54z4bkEIOrfgDnY-Pka-7" target="H54z4bkEIOrfgDnY-Pka-6">
          <mxGeometry relative="1" as="geometry" />
        </mxCell>
        <mxCell id="H54z4bkEIOrfgDnY-Pka-7" value="id" style="ellipse;whiteSpace=wrap;html=1;fontFamily=Times New Roman;fontSize=16;" vertex="1" parent="1">
          <mxGeometry x="100" y="150" width="100" height="50" as="geometry" />
        </mxCell>
        <mxCell id="H54z4bkEIOrfgDnY-Pka-10" value="" style="edgeStyle=orthogonalEdgeStyle;rounded=0;orthogonalLoop=1;jettySize=auto;html=1;curved=1;fontSize=16;" edge="1" parent="1" source="H54z4bkEIOrfgDnY-Pka-8" target="H54z4bkEIOrfgDnY-Pka-6">
          <mxGeometry relative="1" as="geometry" />
        </mxCell>
        <mxCell id="H54z4bkEIOrfgDnY-Pka-8" value="username" style="ellipse;whiteSpace=wrap;html=1;fontFamily=Times New Roman;fontSize=16;" vertex="1" parent="1">
          <mxGeometry x="230" y="90" width="100" height="50" as="geometry" />
        </mxCell>
        <mxCell id="H54z4bkEIOrfgDnY-Pka-12" style="edgeStyle=orthogonalEdgeStyle;rounded=0;orthogonalLoop=1;jettySize=auto;html=1;entryX=0.75;entryY=0;entryDx=0;entryDy=0;curved=1;fontSize=16;" edge="1" parent="1" source="H54z4bkEIOrfgDnY-Pka-9" target="H54z4bkEIOrfgDnY-Pka-6">
          <mxGeometry relative="1" as="geometry" />
        </mxCell>
        <mxCell id="H54z4bkEIOrfgDnY-Pka-9" value="password" style="ellipse;whiteSpace=wrap;html=1;fontFamily=Times New Roman;fontSize=16;" vertex="1" parent="1">
          <mxGeometry x="375" y="100" width="100" height="50" as="geometry" />
        </mxCell>
        <mxCell id="H54z4bkEIOrfgDnY-Pka-13" value="product" style="rounded=1;whiteSpace=wrap;html=1;fontFamily=Times New Roman;fontSize=16;" vertex="1" parent="1">
          <mxGeometry x="680" y="200" width="120" height="60" as="geometry" />
        </mxCell>
        <mxCell id="H54z4bkEIOrfgDnY-Pka-20" style="edgeStyle=orthogonalEdgeStyle;rounded=0;orthogonalLoop=1;jettySize=auto;html=1;entryX=0.25;entryY=0;entryDx=0;entryDy=0;curved=1;fontSize=16;" edge="1" parent="1" source="H54z4bkEIOrfgDnY-Pka-15" target="H54z4bkEIOrfgDnY-Pka-13">
          <mxGeometry relative="1" as="geometry" />
        </mxCell>
        <mxCell id="H54z4bkEIOrfgDnY-Pka-15" value="id" style="ellipse;whiteSpace=wrap;html=1;fontFamily=Times New Roman;fontSize=16;" vertex="1" parent="1">
          <mxGeometry x="590" y="120" width="100" height="50" as="geometry" />
        </mxCell>
        <mxCell id="H54z4bkEIOrfgDnY-Pka-16" value="" style="edgeStyle=orthogonalEdgeStyle;rounded=0;orthogonalLoop=1;jettySize=auto;html=1;curved=1;fontSize=16;" edge="1" parent="1" source="H54z4bkEIOrfgDnY-Pka-17" target="H54z4bkEIOrfgDnY-Pka-13">
          <mxGeometry relative="1" as="geometry" />
        </mxCell>
        <mxCell id="H54z4bkEIOrfgDnY-Pka-17" value="sku" style="ellipse;whiteSpace=wrap;html=1;fontFamily=Times New Roman;fontSize=16;" vertex="1" parent="1">
          <mxGeometry x="680" y="80" width="100" height="50" as="geometry" />
        </mxCell>
        <mxCell id="H54z4bkEIOrfgDnY-Pka-18" style="edgeStyle=orthogonalEdgeStyle;rounded=0;orthogonalLoop=1;jettySize=auto;html=1;entryX=0.75;entryY=0;entryDx=0;entryDy=0;curved=1;fontSize=16;" edge="1" parent="1" source="H54z4bkEIOrfgDnY-Pka-19" target="H54z4bkEIOrfgDnY-Pka-13">
          <mxGeometry relative="1" as="geometry" />
        </mxCell>
        <mxCell id="H54z4bkEIOrfgDnY-Pka-19" value="name" style="ellipse;whiteSpace=wrap;html=1;fontFamily=Times New Roman;fontSize=16;" vertex="1" parent="1">
          <mxGeometry x="790" y="90" width="100" height="50" as="geometry" />
        </mxCell>
        <mxCell id="H54z4bkEIOrfgDnY-Pka-22" value="" style="edgeStyle=orthogonalEdgeStyle;rounded=0;orthogonalLoop=1;jettySize=auto;html=1;curved=1;entryX=1;entryY=0.25;entryDx=0;entryDy=0;fontSize=16;" edge="1" parent="1" source="H54z4bkEIOrfgDnY-Pka-21" target="H54z4bkEIOrfgDnY-Pka-13">
          <mxGeometry relative="1" as="geometry" />
        </mxCell>
        <mxCell id="H54z4bkEIOrfgDnY-Pka-21" value="buyPrice" style="ellipse;whiteSpace=wrap;html=1;fontFamily=Times New Roman;fontSize=16;" vertex="1" parent="1">
          <mxGeometry x="870" y="130" width="100" height="50" as="geometry" />
        </mxCell>
        <mxCell id="H54z4bkEIOrfgDnY-Pka-23" value="currentPrice" style="ellipse;whiteSpace=wrap;html=1;fontFamily=Times New Roman;fontSize=16;" vertex="1" parent="1">
          <mxGeometry x="900" y="181" width="100" height="50" as="geometry" />
        </mxCell>
        <mxCell id="H54z4bkEIOrfgDnY-Pka-24" style="edgeStyle=orthogonalEdgeStyle;rounded=0;orthogonalLoop=1;jettySize=auto;html=1;exitX=0;exitY=0.5;exitDx=0;exitDy=0;entryX=1;entryY=0.667;entryDx=0;entryDy=0;entryPerimeter=0;curved=1;fontSize=16;" edge="1" parent="1" source="H54z4bkEIOrfgDnY-Pka-23" target="H54z4bkEIOrfgDnY-Pka-13">
          <mxGeometry relative="1" as="geometry" />
        </mxCell>
        <mxCell id="H54z4bkEIOrfgDnY-Pka-26" style="edgeStyle=orthogonalEdgeStyle;rounded=0;orthogonalLoop=1;jettySize=auto;html=1;exitX=0;exitY=0.5;exitDx=0;exitDy=0;entryX=1;entryY=0.75;entryDx=0;entryDy=0;curved=1;fontSize=16;" edge="1" parent="1" source="H54z4bkEIOrfgDnY-Pka-25" target="H54z4bkEIOrfgDnY-Pka-13">
          <mxGeometry relative="1" as="geometry" />
        </mxCell>
        <mxCell id="H54z4bkEIOrfgDnY-Pka-25" value="stock" style="ellipse;whiteSpace=wrap;html=1;fontFamily=Times New Roman;fontSize=16;" vertex="1" parent="1">
          <mxGeometry x="900" y="235" width="100" height="50" as="geometry" />
        </mxCell>
        <mxCell id="H54z4bkEIOrfgDnY-Pka-29" value="" style="edgeStyle=orthogonalEdgeStyle;rounded=0;orthogonalLoop=1;jettySize=auto;html=1;fontSize=16;" edge="1" parent="1" source="H54z4bkEIOrfgDnY-Pka-27" target="H54z4bkEIOrfgDnY-Pka-13">
          <mxGeometry relative="1" as="geometry" />
        </mxCell>
        <mxCell id="H54z4bkEIOrfgDnY-Pka-122" style="edgeStyle=orthogonalEdgeStyle;rounded=0;orthogonalLoop=1;jettySize=auto;html=1;entryX=0;entryY=0.25;entryDx=0;entryDy=0;fontSize=16;" edge="1" parent="1" source="H54z4bkEIOrfgDnY-Pka-27" target="H54z4bkEIOrfgDnY-Pka-76">
          <mxGeometry relative="1" as="geometry">
            <Array as="points">
              <mxPoint x="535" y="310" />
              <mxPoint x="100" y="310" />
              <mxPoint x="100" y="700" />
              <mxPoint x="240" y="700" />
              <mxPoint x="240" y="725" />
            </Array>
          </mxGeometry>
        </mxCell>
        <mxCell id="H54z4bkEIOrfgDnY-Pka-27" value="memasukkan" style="rhombus;whiteSpace=wrap;html=1;fontSize=16;" vertex="1" parent="1">
          <mxGeometry x="475" y="182.5" width="120" height="95" as="geometry" />
        </mxCell>
        <mxCell id="H54z4bkEIOrfgDnY-Pka-84" value="" style="edgeStyle=orthogonalEdgeStyle;rounded=0;orthogonalLoop=1;jettySize=auto;html=1;fontSize=16;" edge="1" parent="1" source="H54z4bkEIOrfgDnY-Pka-30" target="H54z4bkEIOrfgDnY-Pka-83">
          <mxGeometry relative="1" as="geometry" />
        </mxCell>
        <mxCell id="H54z4bkEIOrfgDnY-Pka-30" value="inbound" style="rounded=1;whiteSpace=wrap;html=1;fontFamily=Times New Roman;fontSize=16;" vertex="1" parent="1">
          <mxGeometry x="270" y="425" width="120" height="60" as="geometry" />
        </mxCell>
        <mxCell id="H54z4bkEIOrfgDnY-Pka-42" value="" style="edgeStyle=orthogonalEdgeStyle;rounded=0;orthogonalLoop=1;jettySize=auto;html=1;curved=1;fontSize=16;" edge="1" parent="1" source="H54z4bkEIOrfgDnY-Pka-32" target="H54z4bkEIOrfgDnY-Pka-30">
          <mxGeometry relative="1" as="geometry" />
        </mxCell>
        <mxCell id="H54z4bkEIOrfgDnY-Pka-32" value="id" style="ellipse;whiteSpace=wrap;html=1;fontFamily=Times New Roman;fontSize=16;" vertex="1" parent="1">
          <mxGeometry x="120" y="425" width="100" height="50" as="geometry" />
        </mxCell>
        <mxCell id="H54z4bkEIOrfgDnY-Pka-45" style="edgeStyle=orthogonalEdgeStyle;rounded=0;orthogonalLoop=1;jettySize=auto;html=1;entryX=0.25;entryY=0;entryDx=0;entryDy=0;curved=1;fontSize=16;" edge="1" parent="1" source="H54z4bkEIOrfgDnY-Pka-34" target="H54z4bkEIOrfgDnY-Pka-30">
          <mxGeometry relative="1" as="geometry" />
        </mxCell>
        <mxCell id="H54z4bkEIOrfgDnY-Pka-34" value="transactionDate" style="ellipse;whiteSpace=wrap;html=1;fontFamily=Times New Roman;fontSize=16;" vertex="1" parent="1">
          <mxGeometry x="150" y="350" width="110" height="50" as="geometry" />
        </mxCell>
        <mxCell id="H54z4bkEIOrfgDnY-Pka-44" value="" style="edgeStyle=orthogonalEdgeStyle;rounded=0;orthogonalLoop=1;jettySize=auto;html=1;curved=1;fontSize=16;" edge="1" parent="1" source="H54z4bkEIOrfgDnY-Pka-36" target="H54z4bkEIOrfgDnY-Pka-30">
          <mxGeometry relative="1" as="geometry" />
        </mxCell>
        <mxCell id="H54z4bkEIOrfgDnY-Pka-36" value="totalPrice" style="ellipse;whiteSpace=wrap;html=1;fontFamily=Times New Roman;fontSize=16;" vertex="1" parent="1">
          <mxGeometry x="290" y="330" width="100" height="50" as="geometry" />
        </mxCell>
        <mxCell id="H54z4bkEIOrfgDnY-Pka-120" style="edgeStyle=orthogonalEdgeStyle;rounded=0;orthogonalLoop=1;jettySize=auto;html=1;entryX=0.5;entryY=0;entryDx=0;entryDy=0;exitX=0.822;exitY=1.005;exitDx=0;exitDy=0;exitPerimeter=0;fontSize=16;" edge="1" parent="1" source="H54z4bkEIOrfgDnY-Pka-54" target="H54z4bkEIOrfgDnY-Pka-117">
          <mxGeometry relative="1" as="geometry">
            <Array as="points">
              <mxPoint x="779" y="505" />
              <mxPoint x="920" y="505" />
            </Array>
          </mxGeometry>
        </mxCell>
        <mxCell id="H54z4bkEIOrfgDnY-Pka-54" value="inboundDetail" style="rounded=1;whiteSpace=wrap;html=1;fontFamily=Times New Roman;fontSize=16;" vertex="1" parent="1">
          <mxGeometry x="680" y="425" width="120" height="60" as="geometry" />
        </mxCell>
        <mxCell id="H54z4bkEIOrfgDnY-Pka-71" style="edgeStyle=orthogonalEdgeStyle;rounded=0;orthogonalLoop=1;jettySize=auto;html=1;entryX=0.25;entryY=1;entryDx=0;entryDy=0;curved=1;fontSize=16;" edge="1" parent="1" source="H54z4bkEIOrfgDnY-Pka-56" target="H54z4bkEIOrfgDnY-Pka-54">
          <mxGeometry relative="1" as="geometry" />
        </mxCell>
        <mxCell id="H54z4bkEIOrfgDnY-Pka-56" value="id" style="ellipse;whiteSpace=wrap;html=1;fontFamily=Times New Roman;fontSize=16;" vertex="1" parent="1">
          <mxGeometry x="565" y="495" width="100" height="50" as="geometry" />
        </mxCell>
        <mxCell id="H54z4bkEIOrfgDnY-Pka-70" value="" style="edgeStyle=orthogonalEdgeStyle;rounded=0;orthogonalLoop=1;jettySize=auto;html=1;curved=1;fontSize=16;" edge="1" parent="1" source="H54z4bkEIOrfgDnY-Pka-58" target="H54z4bkEIOrfgDnY-Pka-54">
          <mxGeometry relative="1" as="geometry">
            <Array as="points">
              <mxPoint x="720" y="510" />
              <mxPoint x="740" y="510" />
            </Array>
          </mxGeometry>
        </mxCell>
        <mxCell id="H54z4bkEIOrfgDnY-Pka-58" value="inboundId" style="ellipse;whiteSpace=wrap;html=1;fontFamily=Times New Roman;fontSize=16;" vertex="1" parent="1">
          <mxGeometry x="660" y="535" width="100" height="50" as="geometry" />
        </mxCell>
        <mxCell id="H54z4bkEIOrfgDnY-Pka-60" value="producrId" style="ellipse;whiteSpace=wrap;html=1;fontFamily=Times New Roman;fontSize=16;" vertex="1" parent="1">
          <mxGeometry x="770" y="535" width="100" height="50" as="geometry" />
        </mxCell>
        <mxCell id="H54z4bkEIOrfgDnY-Pka-74" style="edgeStyle=orthogonalEdgeStyle;rounded=0;orthogonalLoop=1;jettySize=auto;html=1;entryX=1;entryY=0.25;entryDx=0;entryDy=0;curved=1;fontSize=16;" edge="1" parent="1" source="H54z4bkEIOrfgDnY-Pka-62" target="H54z4bkEIOrfgDnY-Pka-54">
          <mxGeometry relative="1" as="geometry" />
        </mxCell>
        <mxCell id="H54z4bkEIOrfgDnY-Pka-62" value="amount" style="ellipse;whiteSpace=wrap;html=1;fontFamily=Times New Roman;fontSize=16;" vertex="1" parent="1">
          <mxGeometry x="850" y="335" width="100" height="50" as="geometry" />
        </mxCell>
        <mxCell id="H54z4bkEIOrfgDnY-Pka-75" style="edgeStyle=orthogonalEdgeStyle;rounded=0;orthogonalLoop=1;jettySize=auto;html=1;entryX=1;entryY=0.5;entryDx=0;entryDy=0;curved=1;fontSize=16;" edge="1" parent="1" source="H54z4bkEIOrfgDnY-Pka-63" target="H54z4bkEIOrfgDnY-Pka-54">
          <mxGeometry relative="1" as="geometry" />
        </mxCell>
        <mxCell id="H54z4bkEIOrfgDnY-Pka-63" value="soldAmount" style="ellipse;whiteSpace=wrap;html=1;fontFamily=Times New Roman;fontSize=16;" vertex="1" parent="1">
          <mxGeometry x="870" y="395" width="100" height="50" as="geometry" />
        </mxCell>
        <mxCell id="H54z4bkEIOrfgDnY-Pka-73" style="edgeStyle=orthogonalEdgeStyle;rounded=0;orthogonalLoop=1;jettySize=auto;html=1;entryX=1;entryY=0.75;entryDx=0;entryDy=0;curved=1;fontSize=16;" edge="1" parent="1" source="H54z4bkEIOrfgDnY-Pka-66" target="H54z4bkEIOrfgDnY-Pka-54">
          <mxGeometry relative="1" as="geometry" />
        </mxCell>
        <mxCell id="H54z4bkEIOrfgDnY-Pka-66" value="buyPrice" style="ellipse;whiteSpace=wrap;html=1;fontFamily=Times New Roman;fontSize=16;" vertex="1" parent="1">
          <mxGeometry x="910" y="445" width="100" height="50" as="geometry" />
        </mxCell>
        <mxCell id="H54z4bkEIOrfgDnY-Pka-68" value="" style="edgeStyle=orthogonalEdgeStyle;rounded=0;orthogonalLoop=1;jettySize=auto;html=1;fontSize=16;" edge="1" parent="1" target="H54z4bkEIOrfgDnY-Pka-54">
          <mxGeometry relative="1" as="geometry">
            <mxPoint x="740" y="345" as="sourcePoint" />
          </mxGeometry>
        </mxCell>
        <mxCell id="H54z4bkEIOrfgDnY-Pka-69" value="" style="edgeStyle=orthogonalEdgeStyle;rounded=0;orthogonalLoop=1;jettySize=auto;html=1;fontSize=16;" edge="1" parent="1" source="H54z4bkEIOrfgDnY-Pka-67" target="H54z4bkEIOrfgDnY-Pka-13">
          <mxGeometry relative="1" as="geometry" />
        </mxCell>
        <mxCell id="H54z4bkEIOrfgDnY-Pka-67" value="memiliki" style="rhombus;whiteSpace=wrap;html=1;fontSize=16;" vertex="1" parent="1">
          <mxGeometry x="695" y="298" width="90" height="90" as="geometry" />
        </mxCell>
        <mxCell id="H54z4bkEIOrfgDnY-Pka-72" style="edgeStyle=orthogonalEdgeStyle;rounded=0;orthogonalLoop=1;jettySize=auto;html=1;entryX=0.638;entryY=1.04;entryDx=0;entryDy=0;entryPerimeter=0;curved=1;fontSize=16;" edge="1" parent="1" source="H54z4bkEIOrfgDnY-Pka-60" target="H54z4bkEIOrfgDnY-Pka-54">
          <mxGeometry relative="1" as="geometry" />
        </mxCell>
        <mxCell id="H54z4bkEIOrfgDnY-Pka-103" value="" style="edgeStyle=orthogonalEdgeStyle;rounded=0;orthogonalLoop=1;jettySize=auto;html=1;fontSize=16;" edge="1" parent="1" source="H54z4bkEIOrfgDnY-Pka-76" target="H54z4bkEIOrfgDnY-Pka-102">
          <mxGeometry relative="1" as="geometry" />
        </mxCell>
        <mxCell id="H54z4bkEIOrfgDnY-Pka-76" value="outbound" style="rounded=1;whiteSpace=wrap;html=1;fontFamily=Times New Roman;fontSize=16;" vertex="1" parent="1">
          <mxGeometry x="255" y="710" width="120" height="60" as="geometry" />
        </mxCell>
        <mxCell id="H54z4bkEIOrfgDnY-Pka-77" value="" style="edgeStyle=orthogonalEdgeStyle;rounded=0;orthogonalLoop=1;jettySize=auto;html=1;curved=1;fontSize=16;" edge="1" parent="1" source="H54z4bkEIOrfgDnY-Pka-78" target="H54z4bkEIOrfgDnY-Pka-76">
          <mxGeometry relative="1" as="geometry" />
        </mxCell>
        <mxCell id="H54z4bkEIOrfgDnY-Pka-78" value="id" style="ellipse;whiteSpace=wrap;html=1;fontFamily=Times New Roman;fontSize=16;" vertex="1" parent="1">
          <mxGeometry x="105" y="710" width="100" height="50" as="geometry" />
        </mxCell>
        <mxCell id="H54z4bkEIOrfgDnY-Pka-79" style="edgeStyle=orthogonalEdgeStyle;rounded=0;orthogonalLoop=1;jettySize=auto;html=1;entryX=0.25;entryY=0;entryDx=0;entryDy=0;curved=1;fontSize=16;" edge="1" parent="1" source="H54z4bkEIOrfgDnY-Pka-80" target="H54z4bkEIOrfgDnY-Pka-76">
          <mxGeometry relative="1" as="geometry" />
        </mxCell>
        <mxCell id="H54z4bkEIOrfgDnY-Pka-80" value="transactionDate" style="ellipse;whiteSpace=wrap;html=1;fontFamily=Times New Roman;fontSize=16;" vertex="1" parent="1">
          <mxGeometry x="130" y="630" width="115" height="55" as="geometry" />
        </mxCell>
        <mxCell id="H54z4bkEIOrfgDnY-Pka-81" value="" style="edgeStyle=orthogonalEdgeStyle;rounded=0;orthogonalLoop=1;jettySize=auto;html=1;curved=1;fontSize=16;" edge="1" parent="1" source="H54z4bkEIOrfgDnY-Pka-82" target="H54z4bkEIOrfgDnY-Pka-76">
          <mxGeometry relative="1" as="geometry" />
        </mxCell>
        <mxCell id="H54z4bkEIOrfgDnY-Pka-82" value="totalPrice" style="ellipse;whiteSpace=wrap;html=1;fontFamily=Times New Roman;fontSize=16;" vertex="1" parent="1">
          <mxGeometry x="275" y="615" width="100" height="50" as="geometry" />
        </mxCell>
        <mxCell id="H54z4bkEIOrfgDnY-Pka-85" value="" style="edgeStyle=orthogonalEdgeStyle;rounded=0;orthogonalLoop=1;jettySize=auto;html=1;fontSize=16;" edge="1" parent="1" source="H54z4bkEIOrfgDnY-Pka-83" target="H54z4bkEIOrfgDnY-Pka-54">
          <mxGeometry relative="1" as="geometry" />
        </mxCell>
        <mxCell id="H54z4bkEIOrfgDnY-Pka-83" value="memiliki" style="rhombus;whiteSpace=wrap;html=1;fontSize=16;" vertex="1" parent="1">
          <mxGeometry x="490" y="410" width="90" height="90" as="geometry" />
        </mxCell>
        <mxCell id="H54z4bkEIOrfgDnY-Pka-118" style="edgeStyle=orthogonalEdgeStyle;rounded=0;orthogonalLoop=1;jettySize=auto;html=1;exitX=0.5;exitY=0;exitDx=0;exitDy=0;entryX=0;entryY=0.5;entryDx=0;entryDy=0;fontSize=16;" edge="1" parent="1" source="H54z4bkEIOrfgDnY-Pka-87" target="H54z4bkEIOrfgDnY-Pka-117">
          <mxGeometry relative="1" as="geometry" />
        </mxCell>
        <mxCell id="H54z4bkEIOrfgDnY-Pka-87" value="outboundDetail" style="rounded=1;whiteSpace=wrap;html=1;fontFamily=Times New Roman;fontSize=16;" vertex="1" parent="1">
          <mxGeometry x="680" y="710" width="120" height="60" as="geometry" />
        </mxCell>
        <mxCell id="H54z4bkEIOrfgDnY-Pka-88" style="edgeStyle=orthogonalEdgeStyle;rounded=0;orthogonalLoop=1;jettySize=auto;html=1;entryX=0.25;entryY=1;entryDx=0;entryDy=0;curved=1;fontSize=16;" edge="1" parent="1" source="H54z4bkEIOrfgDnY-Pka-89" target="H54z4bkEIOrfgDnY-Pka-87">
          <mxGeometry relative="1" as="geometry" />
        </mxCell>
        <mxCell id="H54z4bkEIOrfgDnY-Pka-89" value="id" style="ellipse;whiteSpace=wrap;html=1;fontFamily=Times New Roman;fontSize=16;" vertex="1" parent="1">
          <mxGeometry x="565" y="780" width="100" height="50" as="geometry" />
        </mxCell>
        <mxCell id="H54z4bkEIOrfgDnY-Pka-90" value="" style="edgeStyle=orthogonalEdgeStyle;rounded=0;orthogonalLoop=1;jettySize=auto;html=1;curved=1;fontSize=16;" edge="1" parent="1" source="H54z4bkEIOrfgDnY-Pka-91" target="H54z4bkEIOrfgDnY-Pka-87">
          <mxGeometry relative="1" as="geometry">
            <Array as="points">
              <mxPoint x="720" y="795" />
              <mxPoint x="740" y="795" />
            </Array>
          </mxGeometry>
        </mxCell>
        <mxCell id="H54z4bkEIOrfgDnY-Pka-91" value="outboundId" style="ellipse;whiteSpace=wrap;html=1;fontFamily=Times New Roman;fontSize=16;" vertex="1" parent="1">
          <mxGeometry x="660" y="820" width="100" height="50" as="geometry" />
        </mxCell>
        <mxCell id="H54z4bkEIOrfgDnY-Pka-92" value="producrId" style="ellipse;whiteSpace=wrap;html=1;fontFamily=Times New Roman;fontSize=16;" vertex="1" parent="1">
          <mxGeometry x="770" y="820" width="100" height="50" as="geometry" />
        </mxCell>
        <mxCell id="H54z4bkEIOrfgDnY-Pka-95" style="edgeStyle=orthogonalEdgeStyle;rounded=0;orthogonalLoop=1;jettySize=auto;html=1;entryX=1;entryY=0.5;entryDx=0;entryDy=0;curved=1;fontSize=16;" edge="1" parent="1" source="H54z4bkEIOrfgDnY-Pka-96" target="H54z4bkEIOrfgDnY-Pka-87">
          <mxGeometry relative="1" as="geometry" />
        </mxCell>
        <mxCell id="H54z4bkEIOrfgDnY-Pka-96" value="amount" style="ellipse;whiteSpace=wrap;html=1;fontFamily=Times New Roman;fontSize=16;" vertex="1" parent="1">
          <mxGeometry x="870" y="710" width="100" height="50" as="geometry" />
        </mxCell>
        <mxCell id="H54z4bkEIOrfgDnY-Pka-97" style="edgeStyle=orthogonalEdgeStyle;rounded=0;orthogonalLoop=1;jettySize=auto;html=1;entryX=1;entryY=0.75;entryDx=0;entryDy=0;curved=1;fontSize=16;" edge="1" parent="1" source="H54z4bkEIOrfgDnY-Pka-98" target="H54z4bkEIOrfgDnY-Pka-87">
          <mxGeometry relative="1" as="geometry" />
        </mxCell>
        <mxCell id="H54z4bkEIOrfgDnY-Pka-98" value="currentPrice" style="ellipse;whiteSpace=wrap;html=1;fontFamily=Times New Roman;fontSize=16;" vertex="1" parent="1">
          <mxGeometry x="860" y="770" width="100" height="50" as="geometry" />
        </mxCell>
        <mxCell id="H54z4bkEIOrfgDnY-Pka-100" style="edgeStyle=orthogonalEdgeStyle;rounded=0;orthogonalLoop=1;jettySize=auto;html=1;entryX=0.638;entryY=1.04;entryDx=0;entryDy=0;entryPerimeter=0;curved=1;fontSize=16;" edge="1" parent="1" source="H54z4bkEIOrfgDnY-Pka-92" target="H54z4bkEIOrfgDnY-Pka-87">
          <mxGeometry relative="1" as="geometry" />
        </mxCell>
        <mxCell id="H54z4bkEIOrfgDnY-Pka-101" value="" style="edgeStyle=orthogonalEdgeStyle;rounded=0;orthogonalLoop=1;jettySize=auto;html=1;fontSize=16;" edge="1" parent="1" target="H54z4bkEIOrfgDnY-Pka-87">
          <mxGeometry relative="1" as="geometry">
            <mxPoint x="580" y="740" as="sourcePoint" />
          </mxGeometry>
        </mxCell>
        <mxCell id="H54z4bkEIOrfgDnY-Pka-102" value="memiliki" style="rhombus;whiteSpace=wrap;html=1;fontSize=16;" vertex="1" parent="1">
          <mxGeometry x="490" y="695" width="90" height="90" as="geometry" />
        </mxCell>
        <mxCell id="H54z4bkEIOrfgDnY-Pka-104" value="outbounRef" style="rounded=1;whiteSpace=wrap;html=1;fontFamily=Times New Roman;fontSize=16;" vertex="1" parent="1">
          <mxGeometry x="1050" y="555" width="120" height="60" as="geometry" />
        </mxCell>
        <mxCell id="H54z4bkEIOrfgDnY-Pka-106" value="" style="edgeStyle=orthogonalEdgeStyle;rounded=0;orthogonalLoop=1;jettySize=auto;html=1;curved=1;fontSize=16;" edge="1" parent="1" source="H54z4bkEIOrfgDnY-Pka-107" target="H54z4bkEIOrfgDnY-Pka-104">
          <mxGeometry relative="1" as="geometry">
            <Array as="points">
              <mxPoint x="1090" y="640" />
              <mxPoint x="1110" y="640" />
            </Array>
          </mxGeometry>
        </mxCell>
        <mxCell id="H54z4bkEIOrfgDnY-Pka-107" value="id" style="ellipse;whiteSpace=wrap;html=1;fontFamily=Times New Roman;fontSize=16;" vertex="1" parent="1">
          <mxGeometry x="1030" y="665" width="100" height="50" as="geometry" />
        </mxCell>
        <mxCell id="H54z4bkEIOrfgDnY-Pka-108" value="outboundDetailId" style="ellipse;whiteSpace=wrap;html=1;fontFamily=Times New Roman;fontSize=16;" vertex="1" parent="1">
          <mxGeometry x="1140" y="665" width="120" height="55" as="geometry" />
        </mxCell>
        <mxCell id="H54z4bkEIOrfgDnY-Pka-109" style="edgeStyle=orthogonalEdgeStyle;rounded=0;orthogonalLoop=1;jettySize=auto;html=1;entryX=1;entryY=0.5;entryDx=0;entryDy=0;curved=1;fontSize=16;" edge="1" parent="1" source="H54z4bkEIOrfgDnY-Pka-110" target="H54z4bkEIOrfgDnY-Pka-104">
          <mxGeometry relative="1" as="geometry" />
        </mxCell>
        <mxCell id="H54z4bkEIOrfgDnY-Pka-110" value="buyPrice" style="ellipse;whiteSpace=wrap;html=1;fontFamily=Times New Roman;fontSize=16;" vertex="1" parent="1">
          <mxGeometry x="1240" y="555" width="100" height="50" as="geometry" />
        </mxCell>
        <mxCell id="H54z4bkEIOrfgDnY-Pka-111" style="edgeStyle=orthogonalEdgeStyle;rounded=0;orthogonalLoop=1;jettySize=auto;html=1;entryX=1;entryY=0.75;entryDx=0;entryDy=0;curved=1;fontSize=16;" edge="1" parent="1" source="H54z4bkEIOrfgDnY-Pka-112" target="H54z4bkEIOrfgDnY-Pka-104">
          <mxGeometry relative="1" as="geometry" />
        </mxCell>
        <mxCell id="H54z4bkEIOrfgDnY-Pka-112" value="inboundDetailId" style="ellipse;whiteSpace=wrap;html=1;fontFamily=Times New Roman;fontSize=16;" vertex="1" parent="1">
          <mxGeometry x="1230" y="615" width="110" height="55" as="geometry" />
        </mxCell>
        <mxCell id="H54z4bkEIOrfgDnY-Pka-113" style="edgeStyle=orthogonalEdgeStyle;rounded=0;orthogonalLoop=1;jettySize=auto;html=1;entryX=0.638;entryY=1.04;entryDx=0;entryDy=0;entryPerimeter=0;curved=1;fontSize=16;" edge="1" parent="1" source="H54z4bkEIOrfgDnY-Pka-108" target="H54z4bkEIOrfgDnY-Pka-104">
          <mxGeometry relative="1" as="geometry" />
        </mxCell>
        <mxCell id="H54z4bkEIOrfgDnY-Pka-119" style="edgeStyle=orthogonalEdgeStyle;rounded=0;orthogonalLoop=1;jettySize=auto;html=1;exitX=1;exitY=0.5;exitDx=0;exitDy=0;entryX=0;entryY=0.5;entryDx=0;entryDy=0;fontSize=16;" edge="1" parent="1" source="H54z4bkEIOrfgDnY-Pka-117" target="H54z4bkEIOrfgDnY-Pka-104">
          <mxGeometry relative="1" as="geometry" />
        </mxCell>
        <mxCell id="H54z4bkEIOrfgDnY-Pka-117" value="memiliki" style="rhombus;whiteSpace=wrap;html=1;fontSize=16;" vertex="1" parent="1">
          <mxGeometry x="875" y="585" width="90" height="90" as="geometry" />
        </mxCell>
        <mxCell id="H54z4bkEIOrfgDnY-Pka-121" style="edgeStyle=orthogonalEdgeStyle;rounded=0;orthogonalLoop=1;jettySize=auto;html=1;exitX=0.5;exitY=1;exitDx=0;exitDy=0;entryX=0.858;entryY=0.041;entryDx=0;entryDy=0;entryPerimeter=0;fontSize=16;" edge="1" parent="1" source="H54z4bkEIOrfgDnY-Pka-27" target="H54z4bkEIOrfgDnY-Pka-30">
          <mxGeometry relative="1" as="geometry">
            <Array as="points">
              <mxPoint x="535" y="380" />
              <mxPoint x="373" y="380" />
            </Array>
          </mxGeometry>
        </mxCell>
      </root>
    </mxGraphModel>
  </diagram>
</mxfile>
